<svg xmlns="http://www.w3.org/2000/svg" preserveAspectRatio="xMidYMid" width="964" height="205">
  <path d="M963.282 101.686c-.066 1.34-.224 2.076-.478 2.202-1.79 1.532-3.447 2.81-4.979 3.83a351.412 351.412 0 0 1-4.979 3.255l-12.83 7.852a134.968 134.968 0 0 0-7.085 4.5 447.158 447.158 0 0 1-7.085 4.691l-6.894 4.979a50.182 50.182 0 0 0-3.83 2.394c-1.406.957-2.81 2.265-4.213 3.925-.64.383-1.023.605-1.149.67-.128.063-.32.35-.574.862-.641.892-1.086 1.691-1.341 2.394a4.98 4.98 0 0 1-1.149 1.819c-.383 1.02-.67 1.628-.861 1.819a2.148 2.148 0 0 1-.479.383c-.129.063-.257.222-.383.479-.129.254-.383.829-.766 1.723a68.898 68.898 0 0 0-2.585 4.883 319.82 319.82 0 0 0-2.394 5.075 138.142 138.142 0 0 1-2.777 5.266 35.057 35.057 0 0 0-2.393 5.266 38.018 38.018 0 0 0-2.585 5.457c-.7 1.85-1.371 3.606-2.011 5.267-1.403 2.68-2.424 4.721-3.064 6.127a438.445 438.445 0 0 0-2.298 5.171c-.637.508-.957 1.149-.957 1.914-.383.383-.637.796-.766 1.245-.126.446-.317.796-.575 1.053l-1.34 1.532c-.383.255-.605.542-.67.862-.063.317-.35.604-.862.862a1.727 1.727 0 0 1-.958.478c-.382.063-.637.222-.765.479-.255.255-.734.383-1.437.383h-3.159c-.255 0-.766-.32-1.532-.957-1.021-.383-1.628-.67-1.819-.862-.192-.191-.413-.607-.671-1.245-.254-.511-.541-.894-.861-1.149a11.552 11.552 0 0 1-.862-.766l-1.34-3.063c-1.149-2.427-1.724-4.916-1.724-7.469a57.64 57.64 0 0 1-.574-3.83c-.126-1.148-.063-2.426.191-3.829.257-1.407.64-2.747 1.149-4.022a97.669 97.669 0 0 1 1.723-4.021c.766-1.406 1.532-2.585 2.298-3.543.766-.957 1.532-2.076 2.298-3.351.383-.511.958-1.244 1.724-2.202a52.73 52.73 0 0 1 2.776-3.16 176.024 176.024 0 0 1 3.351-3.446 36.775 36.775 0 0 1 3.447-3.064 296.423 296.423 0 0 1 9.766-7.564 115.838 115.838 0 0 1 9.958-6.607c.254-.383.413-.574.479-.574.063 0 .221-.129.478-.383a37.949 37.949 0 0 0 2.873-5.841 221.401 221.401 0 0 1 2.106-5.266l5.362-11.106-5.362 4.213c-.766.64-1.597 1.34-2.489 2.106-.895.766-1.724 1.469-2.49 2.106a49.793 49.793 0 0 1-2.872 2.011c-.895.575-1.852 1.182-2.872 1.819l-1.341.575c-.257.257-.511.383-.766.383h-.574c-1.789.383-2.905.544-3.351.478-.446-.062-.925-.221-1.436-.478-1.021 0-2.107-.383-3.256-1.149-1.149-.766-1.723-1.724-1.723-2.873-.255-1.274-.126-2.552.383-3.829l2.298-4.022 1.723-2.872 1.723-3.256c.509-.637.766-1.053.766-1.244 0-.132.098-.344.279-.627-2.788 1.256-6.068 2.264-9.852 3.02a52.172 52.172 0 0 1-2.872.575c-.766.129-1.661.066-2.681-.192a5.048 5.048 0 0 1-2.011-.766 45.852 45.852 0 0 0-1.819-1.149c-.64-.125-1.023-.287-1.149-.478a4.809 4.809 0 0 0-.574-.67l-.766-.766-.192-.958c0-.637-.066-1.179-.191-1.628-.129-.445-.129-.924 0-1.436 0-1.915.446-3.892 1.34-5.936.255-1.275.575-2.361.958-3.255l-3.447 3.638-4.979 4.021-3.447 3.256c-.894 1.277-1.502 2.076-1.819 2.393-.32.32-1.053.991-2.202 2.011l-3.447 4.404c-1.149 1.407-2.076 2.49-2.777 3.256-.703.766-1.564 1.98-2.585 3.638-.64.64-1.053 1.023-1.244 1.149-.192.129-.416.512-.671 1.149l-1.915 2.106-.383.575-.766 1.149c0 .257-.033.478-.095.67-.066.191-.353.479-.862.862l-.192.191c0 .257-.191.383-.574.383-.637 0-1.083-.063-1.34-.191a4.026 4.026 0 0 1-1.915-1.341c-.509-.125-.925-.508-1.245-1.149-.317-.637-.479-1.083-.479-1.34v-1.149c0-.254.066-.479.192-.67.128-.192.191-.413.191-.671l.575-1.34 1.723-2.298c.64-1.275 1.086-2.394 1.341-3.351.257-.958.7-2.136 1.34-3.543.383-.766.67-1.37.862-1.819.144-.336.264-.624.372-.889-1.728 1.056-2.972 1.959-3.721 2.708-.766.512-1.757 1.149-2.969 1.915a200.414 200.414 0 0 1-3.734 2.298 522.037 522.037 0 0 1-3.542 2.107c-1.086.64-2.011 1.086-2.777 1.34-1.789 1.023-3.255 1.819-4.404 2.394a64.433 64.433 0 0 1-4.022 1.819l-6.893 2.298a62.546 62.546 0 0 0-3.16.479c-1.086.191-2.011.287-2.777.287-.894-.255-1.627-.317-2.202-.192-.574.129-1.373.066-2.393-.191-.641.128-1.215.066-1.724-.192a6.921 6.921 0 0 0-1.723-.574 424.23 424.23 0 0 1-1.915-.766 7.418 7.418 0 0 1-1.724-.958c-.383-.383-1.023-.796-1.915-1.244-.894-.446-1.469-.988-1.723-1.628-.257-.383-.64-1.212-1.149-2.489-.64-1.532-.832-3.16-.574-4.883.254-1.724.445-3.16.574-4.309 0-.383.192-1.083.575-2.106 1.02-3.702 2.935-7.149 5.744-10.341 2.807-3.19 5.745-6.062 8.809-8.617a13.237 13.237 0 0 1 3.447-2.49 41.287 41.287 0 0 0 3.447-1.915c.766-.508 1.403-.765 1.915-.765l1.532-.575h.574c.509 0 1.308.129 2.394.383 1.083.257 1.945.512 2.585.766.509.257.987.703 1.436 1.34.446.641.67 1.407.67 2.298.126.641.096 1.215-.095 1.724a13.774 13.774 0 0 0-.479 1.532c0 .766-.162 1.373-.479 1.819-.32.449-.607.99-.862 1.628-.383.64-.703 1.149-.957 1.532-.257.382-.575.831-.958 1.34-1.66 2.172-3.479 3.991-5.457 5.457a91.274 91.274 0 0 1-6.032 4.118c-.64.128-1.245.32-1.819.574a8.475 8.475 0 0 1-1.819.575c-.129.257-.895.64-2.298 1.148-.129.129-.321.192-.575.192-.128 0-.32.066-.574.191h-1.341c-.383 0-.607-.029-.67-.095-.066-.063-.224-.096-.479-.096.126 0-.065-.126-.574-.383a10.589 10.589 0 0 1-.766 2.872c-.383.895-.449 1.724-.192 2.49.126.511.126 1.244 0 2.202-.128.957.063 1.693.575 2.202l1.723 1.915c.255.257.7.383 1.341.383.637 0 1.149.129 1.532.383 2.552 0 5.104-.317 7.659-.957 2.17-.766 4.659-1.658 7.469-2.681a76.415 76.415 0 0 0 8.042-3.447 7.166 7.166 0 0 1 2.011-1.149c.7-.255 1.436-.575 2.202-.958l7.66-4.787 7.851-5.17 4.918-3.535c.66-1.152 1.158-2.017 1.495-2.593.446-.766.924-1.849 1.436-3.255a8.185 8.185 0 0 0 1.436-2.49c.317-.891.605-1.657.862-2.298.126-.383.35-.924.67-1.627.317-.7.796-1.945 1.436-3.734.255-.638.701-1.021 1.341-1.149h.957c.638 0 1.083.065 1.341.191.254.129.637.257 1.149.383.254.383.637.766 1.149 1.149.508.383.891.832 1.149 1.34 0 .258.062.512.191.766.126.258.063.512-.191.766-.129.383-.192.895-.192 1.532 0 .641-.32 1.661-.957 3.064-.766 1.406-1.374 2.777-1.82 4.117-.448 1.341-1.244 2.843-2.393 4.5l5.745-5.936 4.212-4.021a17.278 17.278 0 0 0 2.011-1.436c.7-.575 1.37-1.116 2.011-1.628l1.532-.383c.254 0 .445-.063.574-.192.126-.125.509-.191 1.149-.191h1.915l1.149.574c.126 0 .317.066.574.192.509.257.829.449.958.574l.383.958c.254.128.383.449.383.957v.575c-.383 2.426-.895 4.15-1.532 5.17-.895 1.915-1.406 3.513-1.532 4.787l-1.34 2.681-.575 2.49c.254.511.35 1.053.287 1.627-.065.575.03 1.119.288 1.628v.192h1.149c2.04 0 3.892-.318 5.553-.958 1.915-.254 3.605-.67 5.074-1.245 1.466-.574 3.094-1.307 4.883-2.202.509-.125 1.532-.574 3.064-1.34 1.144-.572 1.929-1 2.362-1.288.218-.263.451-.504.701-.723.508-.446.891-.862 1.149-1.245l2.106-2.489a20.998 20.998 0 0 0 2.106-2.011c.638-.7 1.275-1.244 1.915-1.627a29.388 29.388 0 0 1 3.351-2.873c1.212-.891 2.777-1.915 4.692-3.064 1.658-.891 3.318-1.34 4.979-1.34h2.202c1.083 0 1.882.129 2.394.383.766.383 1.723 1.149 2.872 2.298.126.257.287.736.479 1.436.191.703.287 1.373.287 2.011l4.213-6.32c0-.254.191-.478.574-.67.383-.191.701-.287.958-.287h.766l.191.191c.126 0 .192.033.192.096 0 .066.125.096.383.096.637.257 1.244.574 1.819.957a3.28 3.28 0 0 1 1.245 1.532l-.192 1.724c-3.447 5.107-6.385 9.927-8.809 14.457-2.426 4.533-4.595 8.588-6.51 12.16-.129.766-.608 1.915-1.436 3.447a152.274 152.274 0 0 1-2.777 4.883 220.654 220.654 0 0 0-2.872 4.979c-.895 1.598-1.47 2.777-1.724 3.543l1.149-.766c.383-.638.925-1.149 1.628-1.532.7-.383 1.37-.829 2.01-1.341a980.806 980.806 0 0 0 3.543-2.489 60.304 60.304 0 0 1 3.351-2.202 80.314 80.314 0 0 0 3.543-2.298 109.384 109.384 0 0 1 4.308-2.777 190.552 190.552 0 0 1 7.468-4.979 220.42 220.42 0 0 0 8.043-5.362 213.39 213.39 0 0 1 2.585-1.819 8.441 8.441 0 0 1 2.777-1.244 51.097 51.097 0 0 0 5.84-3.83c1.85-1.404 3.414-1.849 4.692-1.341.254.258.35 1.054.287 2.394zm-65.299 43.564c-.703.509-1.66 1.275-2.872 2.298a391.48 391.48 0 0 1-3.926 3.256 451.036 451.036 0 0 0-3.255 2.681l-10.34 10.34a45.925 45.925 0 0 1-3.639 6.032c-1.403 1.978-2.423 4.051-3.064 6.224a17.33 17.33 0 0 0-.478 3.159 47.16 47.16 0 0 1-.288 3.16c-.254 2.169-.063 4.021.575 5.553.128.638.353 1.371.67 2.202.32.829.67 1.532 1.053 2.107.383.574.766.924 1.149 1.053.383.126.766-.129 1.149-.766.257-.64.67-1.34 1.245-2.106.574-.766.99-1.469 1.245-2.107a46.8 46.8 0 0 0 2.106-4.404 29.109 29.109 0 0 1 2.298-4.404c.895-1.79 1.789-3.543 2.681-5.266a42.41 42.41 0 0 0 2.298-5.267 60.47 60.47 0 0 1 2.393-4.978 59.994 59.994 0 0 0 2.394-4.979 95.2 95.2 0 0 1 2.777-5.17 31.836 31.836 0 0 0 2.393-5.171c.255-.64.383-.894.383-.766 0 .126.126-.128.383-.766l1.149-1.532c.383-.766.222-.894-.479-.383zm-97.753-43.277c.383-.254.67-.479.862-.67.191-.192.479-.35.862-.479.891-.383 1.594-.766 2.106-1.149a19.653 19.653 0 0 1 1.723-1.149l1.245-1.244c.446-.446 1.053-.925 1.819-1.437.509-.508.925-.957 1.245-1.34.317-.383.604-.957.862-1.723l1.34-2.681.192-.766c-.512.257-.895.449-1.149.574-.258.129-.575.32-.958.575l-2.681 1.723c-.64.64-1.373 1.311-2.202 2.011a35.755 35.755 0 0 0-2.202 2.01c-.895.766-1.598 1.532-2.106 2.298-.512.766-1.215 1.598-2.107 2.49 0 .64-.383 1.34-1.149 2.106l2.298-1.149zm113.743 2.777a36.185 36.185 0 0 0 2.489-2.968c1.149-1.021 2.17-2.615 3.064-4.788.892-2.169 1.212-4.084.958-5.744l-.383-1.341c-.383 0-.928.066-1.628.192-.703.128-1.182.32-1.436.574a47.17 47.17 0 0 0-3.926 2.777c-1.214.957-2.522 2.331-3.925 4.117a6.437 6.437 0 0 0-1.724 1.532 23.287 23.287 0 0 1-1.723 1.915l-1.915 2.489a99.408 99.408 0 0 0-2.585 3.351 85.871 85.871 0 0 0-2.202 3.16l-3.639 5.745a20.36 20.36 0 0 0-1.723 2.393c-.512.832-.703 1.565-.575 2.202 1.404-.637 3.19-1.657 5.362-3.063 2.169-1.404 3.893-2.615 5.17-3.639 1.021-.891 1.82-1.595 2.394-2.106.575-.509 1.116-.988 1.628-1.436.508-.446.987-.862 1.436-1.245.446-.383 1.116-.958 2.011-1.723a14.39 14.39 0 0 0 2.872-2.394zM782.996 41.079c-.383.64-.544.957-.478.957.062 0-.033.383-.288 1.149l-2.489 5.362c-.257.895-.545 1.469-.862 1.723-.32.258-.607.832-.862 1.724l-1.914 4.021c-.258.64-.575 1.341-.958 2.106-.383.766-.703 1.47-.957 2.107-.641.766-1.086 1.502-1.341 2.202-.257.703-.64 1.436-1.149 2.202a110.036 110.036 0 0 0-1.627 3.351 32.586 32.586 0 0 1-1.054 2.107c-.383.703-.894 1.66-1.532 2.872l-2.872 5.458c-.64 1.023-1.311 2.393-2.011 4.117a321.089 321.089 0 0 1-2.202 5.266 423.246 423.246 0 0 1-2.298 5.266c-.766 1.723-1.469 3.159-2.106 4.308l-2.873 5.937 5.362-4.596a27.25 27.25 0 0 1 3.926-2.873 250.583 250.583 0 0 0 4.308-2.68 6.58 6.58 0 0 1 1.341-.671c.508-.191.957-.35 1.34-.478l2.298-.575h.766c1.532 0 3.064.449 4.596 1.341a7.742 7.742 0 0 1 2.298 2.01c.637.832 1.02 1.885 1.149 3.16.254.766.254 1.469 0 2.106a36.752 36.752 0 0 0-.766 2.107 4.86 4.86 0 0 1-.67 2.489 17.832 17.832 0 0 1-1.437 2.107c-.511 1.148-1.406 2.489-2.68 4.021a46.916 46.916 0 0 1-7.373 7.277c-2.747 2.172-5.523 4.021-8.33 5.553-.894.257-1.693.574-2.393.957-.704.383-1.374.703-2.011.958l-3.447 1.149c-.383.383-1.023.574-1.915.574h-1.723c-.258 0-.512-.03-.766-.096a4.152 4.152 0 0 0-.958-.095c-.257-.255-.607-.509-1.053-.766a19.619 19.619 0 0 1-1.245-.766 6.355 6.355 0 0 0-1.053 1.436c-.32.574-.799 1.182-1.436 1.819-.383.383-.766.575-1.149.575l-.766 1.915c-.383.64-.703 1.214-.957 1.723-.258.512-.512 1.023-.766 1.532a9.865 9.865 0 0 0-.575.957 2.955 2.955 0 0 1-.574.766c-.255.255-.509.542-.766.862a4.296 4.296 0 0 1-.958.862c-.383.254-.891.383-1.532.383l-1.532-.766c-.508-.512-.987-.991-1.436-1.436-.446-.449-.733-1.116-.862-2.011 0-.254-.029-.446-.095-.575-.063-.125-.096-.317-.096-.574a3.31 3.31 0 0 0 .191-1.053c0-.317.129-.605.383-.862 0-.383.066-.7.192-.957.129-.255.257-.575.383-.958l1.532-3.638a47.28 47.28 0 0 0 1.819-3.639 49.137 49.137 0 0 1 1.819-3.638 470.882 470.882 0 0 0 2.904-5.924c-.85.934-1.692 1.883-2.519 2.86l-5.745 5.362a147.429 147.429 0 0 0-3.351 2.298 36.606 36.606 0 0 1-3.351 2.106l-2.873 2.298c-.766.64-1.532 1.023-2.298 1.149-.766.129-1.66.32-2.68.575-1.915.64-3.705.64-5.362 0-1.661-.638-3.193-1.595-4.596-2.873a11.322 11.322 0 0 1-2.489-3.064 12.367 12.367 0 0 1-1.341-3.638c-1.149-2.298-1.598-4.85-1.34-7.66a41.137 41.137 0 0 1 .287-7.468c.317-2.423.67-4.913 1.053-7.468.126-1.403.35-2.648.67-3.734a39.322 39.322 0 0 1 1.245-3.543 62.222 62.222 0 0 1 1.532-4.404l-2.681 3.638-9.575 12.447-9.766 12.256-5.17 4.979a136 136 0 0 1-3.064 2.968 119.788 119.788 0 0 1-3.064 2.776c-.64.383-1.119.736-1.436 1.054-.32.32-.67.607-1.053.861-.383.383-1.086.703-2.106.958l-.958.383c-.129.128-.32.191-.574.191-.129 0-.258.066-.383.192-1.149 0-2.298-.255-3.447-.766a2.566 2.566 0 0 0-.862-.575c-.317-.125-.604-.383-.862-.766a3.271 3.271 0 0 1-.383-.478c-.125-.192-.317-.351-.574-.479-.637-1.021-.829-2.107-.575-3.256v-1.149a8.75 8.75 0 0 0 .192-1.723c0-.509.129-1.083.383-1.723.257-.766.512-1.467.766-2.107a13.73 13.73 0 0 1 .946-1.891 96.803 96.803 0 0 1-3.053 1.7c-1.149.64-2.522 1.436-4.117 2.393a150.773 150.773 0 0 0-4.883 3.064 148.223 148.223 0 0 1-4.883 3.064c-1.597.958-2.905 1.819-3.925 2.585-.383.512-.928 1.024-1.628 1.532a27.3 27.3 0 0 1-2.011 1.341c-1.023.511-2.235 1.244-3.638 2.202-1.406.957-2.872 2.202-4.404 3.734-.512.383-1.149.895-1.915 1.532s-1.341 1.212-1.724 1.723c-.511.892-.927 1.628-1.244 2.202a14.546 14.546 0 0 1-1.054 1.628c-1.023 1.915-1.852 3.381-2.489 4.404-.64 1.021-1.34 2.615-2.106 4.788a32.16 32.16 0 0 0-3.064 4.979 98.503 98.503 0 0 0-2.49 5.361 168.53 168.53 0 0 1-3.064 5.841 36.785 36.785 0 0 0-2.489 5.457 68.538 68.538 0 0 0-2.777 5.841 903.997 903.997 0 0 1-2.393 5.649c-1.149 2.935-2.107 5.104-2.873 6.511-.766 1.403-1.657 3.189-2.68 5.361-.638.892-.958 1.658-.958 2.298a7.695 7.695 0 0 0-.67 1.245c-.192.446-.413.796-.67 1.053l-1.532 1.724c-.383.254-.605.541-.671.861-.062.318-.35.605-.861.862a1.738 1.738 0 0 1-.958.479c-.383.063-.7.287-.957.67-.383.254-.892.383-1.532.383h-1.915c-.637 0-1.116-.033-1.436-.096-.317-.066-.796-.416-1.436-1.053-1.021-.383-1.691-.67-2.011-.862-.317-.191-.605-.607-.862-1.244-.637-1.024-1.212-1.724-1.723-2.107a12.65 12.65 0 0 0-.766-1.627c-.255-.449-.446-.991-.575-1.628a32.413 32.413 0 0 1-1.532-4.021 13.937 13.937 0 0 1-.574-4.022 31.959 31.959 0 0 1-.479-4.021c-.063-1.278.033-2.681.287-4.213.258-1.406.641-2.81 1.149-4.213a30.798 30.798 0 0 1 1.915-4.213c.766-1.406 1.532-2.618 2.298-3.638a58.318 58.318 0 0 0 2.49-3.638c.383-.512.99-1.311 1.819-2.394a43.57 43.57 0 0 1 2.968-3.447 97.487 97.487 0 0 1 3.638-3.638 48.521 48.521 0 0 1 3.639-3.16 315.95 315.95 0 0 1 10.436-8.521 97.596 97.596 0 0 1 10.819-7.373c.383-.383.605-.574.67-.574.063 0 .222-.129.479-.383a64.614 64.614 0 0 0 2.968-5.936 440.358 440.358 0 0 0 2.202-5.171 534.961 534.961 0 0 0 2.969-6.415c.957-2.106 1.944-4.18 2.968-6.223l2.298-4.022-4.596 4.022c-.512.511-1.406 1.31-2.681 2.393a152.049 152.049 0 0 1-4.213 3.447 1308.075 1308.075 0 0 0-4.213 3.351 125.339 125.339 0 0 1-2.681 2.107c-1.406 1.277-2.809 2.235-4.212 2.872-.641.258-1.311.512-2.011.766-.703.258-1.373.32-2.011.192-.383 0-.766-.126-1.149-.383-.766 0-1.34-.255-1.723-.766l-.958-.958a10.824 10.824 0 0 1-.766-.861 16.169 16.169 0 0 1-.766-1.054c.129-.383.192-.828.192-1.34 0-1.532.257-2.807.766-3.83.257-.637.544-1.245.862-1.819.32-.575.544-1.053.67-1.436l2.681-6.511c.254-.383.637-1.083 1.149-2.106a49.834 49.834 0 0 0 1.436-3.16c.446-1.083.891-2.136 1.34-3.16.446-1.02.796-1.786 1.053-2.298l1.149-3.063.671-1.341c.191-.383.478-.829.861-1.34v-1.341c.383-.125.575-.574.575-1.34a8.208 8.208 0 0 1 .479-1.628c.191-.446.287-.987.287-1.628.254-.891.733-1.307 1.436-1.244.7.066 1.308.287 1.819.67 1.149.383 1.915 1.149 2.298 2.298.383 0 .575.449.575 1.34l-.575 1.915c0 .64-.066 1.149-.191 1.532a6.693 6.693 0 0 0-.575 1.724c-.129.64-.32 1.277-.574 1.914l-3.256 7.852c-.64 1.023-1.119 2.043-1.436 3.064-.32 1.023-.799 2.043-1.436 3.063a30.812 30.812 0 0 1-1.341 3.352 157.456 157.456 0 0 1-1.531 3.159l-1.724 3.256c.383-.126.766-.383 1.149-.766 1.02-.766 1.915-1.341 2.681-1.724s1.532-.957 2.298-1.723c.254-.126.924-.671 2.01-1.628a704.952 704.952 0 0 0 3.447-3.064 432.246 432.246 0 0 1 3.351-2.968c1.021-.892 1.658-1.403 1.915-1.532l9.767-9.958a62.525 62.525 0 0 1 2.01-2.297c.7-.766 1.562-1.532 2.585-2.298a74.255 74.255 0 0 1 2.203-2.107 18.58 18.58 0 0 1 2.776-2.106l.766-1.341c.126-.254.413-.478.862-.67.446-.191.796-.287 1.053-.287h.766l.191.191c.126 0 .192.033.192.096 0 .066.126.096.383.096a7.581 7.581 0 0 1 1.819 1.053c.575.449.987 1.053 1.245 1.819 0 .766-.066 1.341-.192 1.724a633.962 633.962 0 0 0-6.989 12.064 1283.12 1283.12 0 0 0-6.415 11.489c-.257.766-.64 1.757-1.149 2.968a63.49 63.49 0 0 1-1.723 3.734 84.296 84.296 0 0 0-1.724 3.639c-.512 1.149-.895 2.106-1.149 2.872.126-.125.317-.158.575-.096.254.066.445.033.574-.095.892-1.149 2.041-2.107 3.447-2.873 1.786-1.403 3.255-2.423 4.404-3.064 1.149-.637 2.298-1.466 3.447-2.489a8.093 8.093 0 0 1 2.107-1.532c.765-.383 1.466-.7 2.106-.957a90.47 90.47 0 0 0 2.681-1.437 73.501 73.501 0 0 0 4.021-2.393c1.403-.892 2.711-1.724 3.926-2.49 1.212-.766 2.136-1.403 2.776-1.914 1.021-.383 1.915-.892 2.681-1.532a10.057 10.057 0 0 1 2.49-1.532c.84-.419 1.842-1.023 2.987-1.791.281-.349.562-.707.842-1.082a43.688 43.688 0 0 0 2.969-2.872 100.18 100.18 0 0 1 2.585-2.681l6.128-4.979a37.008 37.008 0 0 1 3.063-1.723c1.021-.509 2.232-.829 3.639-.958.891-.125 1.819-.03 2.776.288.958.32 1.754.736 2.394 1.244.126.129.317.225.574.287a.871.871 0 0 1 .575.479l6.894-10.149a155.355 155.355 0 0 1 4.308-6.319 158.061 158.061 0 0 0 4.309-6.319l9-13.788 2.489-4.021 4.979-10.724a100.958 100.958 0 0 1 3.256-6.989c1.148-2.232 2.36-4.5 3.638-6.798a23.372 23.372 0 0 0 1.915-3.447 25.776 25.776 0 0 1 1.723-3.255c.892-1.275 1.724-2.457 2.49-3.543.766-1.083 1.466-2.328 2.106-3.734.126-.254.637-.383 1.532-.383h.574c.255.129.575.257.958.383.383.129.7.32.957.574.383.258.766.512 1.149.766.383.258.638.703.766 1.341l-.191 1.532-.766 1.149v.383l-.575 1.532c-.383.64-.703 1.34-.957 2.106a42.277 42.277 0 0 0-1.724 3.447 12.436 12.436 0 0 1-1.914 3.064 361.072 361.072 0 0 1-1.724 3.734 57.45 57.45 0 0 1-1.723 3.351l-2.49 4.404a13.23 13.23 0 0 1-.766 1.628c-.257.449-.511.862-.766 1.245a237.896 237.896 0 0 1-1.532 3.734 63.141 63.141 0 0 1-1.723 3.734 18.447 18.447 0 0 1-1.149 3.447 100.493 100.493 0 0 0-1.532 3.638 31.286 31.286 0 0 0-1.723 3.638 31.99 31.99 0 0 1-1.724 3.639 275.085 275.085 0 0 0-5.362 14.362 664.04 664.04 0 0 1-5.17 14.553v.958a13.793 13.793 0 0 0-1.149 3.351 340.603 340.603 0 0 0-.766 3.734 101.434 101.434 0 0 1-.861 3.542 89.522 89.522 0 0 0-.862 3.543l-.575 3.638a19.636 19.636 0 0 0-.287 1.915 4.944 4.944 0 0 1-.479 1.724c.126 1.149.159 2.202.096 3.159a15.27 15.27 0 0 0 .096 2.968c.254.383.413.799.479 1.245.062.449.158.928.287 1.436l.574.958h.575c.125 0 .317.128.574.383.638 0 1.083-.126 1.341-.383h.957c.126-.126.317-.192.575-.192.254 0 .574-.125.957-.383l2.298-1.34c.637-.383 1.245-.7 1.819-.958a4.676 4.676 0 0 0 1.436-.957 23.865 23.865 0 0 0 2.777-2.011c.829-.7 1.753-1.37 2.777-2.01.508-.509.828-.892.957-1.149a118.708 118.708 0 0 0 5.745-5.362 229.011 229.011 0 0 0 5.362-5.553 33.472 33.472 0 0 1 2.776-3.16 16.813 16.813 0 0 0 2.394-2.968c.637-.509 1.149-.988 1.532-1.436.383-.446.892-.862 1.532-1.245.152-.304.342-.57.563-.807.386-.817.772-1.641 1.159-2.448 1.403-2.936 2.806-5.554 4.212-7.852.509-1.02.892-1.657 1.149-1.914.126-.255.509-.958 1.149-2.107a262.403 262.403 0 0 1 4.022-7.277c1.532-2.681 2.743-4.721 3.638-6.127l1.628-3.256c.317-.637.987-1.657 2.01-3.064l2.107-4.212c.254-.766.509-1.275.766-1.532l1.149-2.298c.766-1.532 1.34-2.744 1.723-3.639.383-.891 1.021-2.04 1.915-3.447.766-2.04 1.532-3.668 2.298-4.883.766-1.211 1.466-2.902 2.106-5.074.255-.892.479-1.691.671-2.394.191-.7.413-1.436.67-2.202 0-.254.191-.509.574-.766h.958c.126 0 .287.066.479.192.191.128.412.191.67.191.254.129.574.287.957.479.383.191.638.479.766.862.383.128.509.32.383.574 0 1.532-.033 2.968-.096 4.309a19.152 19.152 0 0 1-.67 4.117zM611.229 145.633c-.766.638-1.819 1.532-3.159 2.681a175.845 175.845 0 0 0-4.213 3.734c-1.469 1.341-2.648 2.328-3.543 2.969l-5.457 5.457a232.964 232.964 0 0 0-5.458 5.649 54.582 54.582 0 0 1-3.925 6.319 24.262 24.262 0 0 0-3.351 6.511l-.958 6.894c0 1.02.066 2.04.192 3.064.128 1.02.32 1.915.574 2.681.257.766.575 1.561.957 2.393.384.829.766 1.562 1.149 2.202.383.638.799 1.021 1.245 1.149.449.126.862-.128 1.245-.766.257-.64.67-1.373 1.245-2.202.574-.832.99-1.627 1.244-2.393a42.107 42.107 0 0 0 2.107-4.501 25.735 25.735 0 0 1 2.489-4.691 77.73 77.73 0 0 0 2.777-5.745c.831-1.915 1.627-3.767 2.393-5.553a67.157 67.157 0 0 0 2.681-5.17 326.392 326.392 0 0 0 2.49-5.554c1.02-1.915 2.01-3.734 2.968-5.457a87.561 87.561 0 0 0 2.776-5.458c.126-.64.126-.832 0-.574-.128.254-.065.063.192-.575l1.915-2.872c.383-.766.191-.832-.575-.192zM690.89 92.59c-.129 0-.129-.063 0-.191-.64 0-1.34.191-2.106.574-.895.257-1.79.67-2.681 1.245a65.02 65.02 0 0 0-2.681 1.819l-3.447 3.447a40.03 40.03 0 0 0-2.777 3.064 59.323 59.323 0 0 0-2.202 2.872l-2.298 3.064c-.766 1.023-1.34 2.044-1.723 3.064a181.01 181.01 0 0 0-1.819 2.968c-.575.957-1.119 2.076-1.628 3.351l-2.106 3.638 1.149-.191c.383-.637.957-1.149 1.723-1.532.637-.509 1.116-.957 1.436-1.34.317-.383.733-.829 1.245-1.341a70.01 70.01 0 0 0 5.266-5.457c1.595-1.85 3.285-3.86 5.074-6.032a209.774 209.774 0 0 0 9.958-12.256l-.383-.766zm61.946 21.543a72.587 72.587 0 0 0-3.925 4.692c-.383.383-.766.831-1.149 1.34a69.874 69.874 0 0 1-1.341 1.723c.638-.383 1.275-.7 1.915-.957l1.915-.766c.637-.383 1.212-.7 1.723-.957a23.053 23.053 0 0 1 1.724-.766 492.634 492.634 0 0 0 3.638-2.203 41.318 41.318 0 0 0 3.256-2.202c1.02-.766 2.01-1.532 2.968-2.298a33.577 33.577 0 0 0 2.776-2.489 82.331 82.331 0 0 0 2.394-2.489 8.185 8.185 0 0 0 1.628-2.681c.637-1.021 1.149-1.945 1.532-2.777.383-.829.766-1.691 1.149-2.585 0-.509.063-.892.191-1.149a9.927 9.927 0 0 0-1.819.957c-.574.383-1.311.766-2.202 1.149l-4.405 3.256a49.497 49.497 0 0 0-4.021 3.255 101.095 101.095 0 0 0-3.83 3.638 134.927 134.927 0 0 0-4.117 4.309zM627.125 34.185a133.166 133.166 0 0 0-2.872 4.883 71.55 71.55 0 0 1-2.873 4.692 110.04 110.04 0 0 1-6.989 8.521 223.737 223.737 0 0 1-7.564 7.947 766.392 766.392 0 0 1-8.713 7.468 302.016 302.016 0 0 1-8.713 7.085 166.956 166.956 0 0 1-4.5 3.16 625.727 625.727 0 0 1-4.692 3.16c-.511.383-1.086.798-1.723 1.244a9.418 9.418 0 0 1-1.915 1.053l-9.192 5.171c-.766.511-1.502.99-2.202 1.436-.703.449-1.502.927-2.393 1.436a30.679 30.679 0 0 0-4.309 2.202 36.068 36.068 0 0 1-4.117 2.202l-6.128 3.064a39.027 39.027 0 0 0-3.255 1.628 17.07 17.07 0 0 1-3.447 1.436l-6.702 2.873c0 .257-.066.383-.192.383l.766.383c.126.766.446 1.532.958 2.297a9.872 9.872 0 0 1 1.149 2.298c-.129.641-.096 1.215.095 1.724.192.511.288 1.086.288 1.723.254.641.478 1.149.67 1.532.191.383.35.895.479 1.532.508.895.924 1.789 1.244 2.681.317.895.67 1.661 1.053 2.298a74.707 74.707 0 0 1 1.437 3.926c.445 1.34 1.116 2.713 2.01 4.117.383.894.796 1.756 1.245 2.585a9.216 9.216 0 0 0 1.628 2.202c.637.383 1.053.766 1.244 1.149.192.383.479.7.862.957a5.12 5.12 0 0 1 1.724 1.149c.765.383 1.786.7 3.063.958 1.404.637 2.744 1.02 4.022 1.149 1.532-.129 2.585-.129 3.159 0 .575.125 1.562.063 2.968-.192.766-.128 1.245-.257 1.437-.383.191-.128.604-.257 1.244-.383 1.404 0 2.232.063 2.49.192l1.532 1.149c.254.254.604.478 1.053.67.446.191.862.541 1.245 1.053.254.383.508.862.766 1.436.254.575.125 1.179-.383 1.819-.383.638-.832.958-1.341.958a132.13 132.13 0 0 0-3.925.766c-1.215.254-2.46.383-3.735.383-1.149.126-2.043.191-2.68.191-.641 0-1.149-.065-1.532-.191a7.204 7.204 0 0 0-1.149-.287 66.22 66.22 0 0 1-1.532-.288c-2.173-.257-4.022-.831-5.554-1.723-1.148-.383-2.106-.832-2.872-1.34a104.584 104.584 0 0 0-2.681-1.724c-1.66-1.023-3.192-2.298-4.596-3.83l-1.915-1.915a10.704 10.704 0 0 1-1.723-2.298 106.672 106.672 0 0 1-2.585-4.691c-.832-1.595-1.565-3.351-2.202-5.266a4.173 4.173 0 0 1-.766-1.628c-.129-.574-.383-1.179-.766-1.819-.258-.637-.512-1.595-.766-2.872a20.755 20.755 0 0 1-.958-2.203c-.257-.7-.511-1.436-.766-2.202a9.107 9.107 0 0 1-1.053-2.872 18.384 18.384 0 0 0-.862-3.064c0 .129-.191.191-.574.191-.129.129-.512.192-1.149.192-.64.257-1.469.066-2.489-.574h-.192l-2.489-1.532c-.512-.383-.832-.733-.958-1.054a9.475 9.475 0 0 1-.383-1.244c-.128-.255-.191-.7-.191-1.341-.512.383-.832.736-.958 1.053-.128.321-.32.671-.574 1.054l-9.192 14.17a133.482 133.482 0 0 0-4.596 6.99 2468.804 2468.804 0 0 0-4.404 7.18 205.43 205.43 0 0 0-3.83 6.894 125.76 125.76 0 0 1-3.83 6.702c-1.406 2.041-2.618 4.339-3.638 6.894a13.747 13.747 0 0 0-1.053 1.628c-.32.574-.608 1.053-.862 1.436-.129.383-.224.67-.287.862-.066.191-.225.413-.479.67-.64.509-1.086.957-1.34 1.34a6.626 6.626 0 0 1-.766.958l-.192-.383c-.511.254-.832.383-.957.383-.766.254-1.278.096-1.532-.479-.257-.574-.703-1.119-1.341-1.628-.64-.64-1.214-1.149-1.723-1.531-.512-.383-.703-1.087-.574-2.107l.765-2.489c.126-.641.222-1.245.288-1.819.063-.575.35-1.182.861-1.82l3.83-7.276a397.837 397.837 0 0 0 3.639-7.086 69.697 69.697 0 0 1 3.829-6.702 232.524 232.524 0 0 0 3.064-4.883c.892-1.466 1.978-3.094 3.256-4.883.254-.637 1.053-1.723 2.393-3.255 1.341-1.532 2.074-2.681 2.203-3.447 0-.509.125-1.02.382-1.532.383-1.532.575-2.872.575-4.021a8.318 8.318 0 0 0 .67-2.681c.063-.892.222-1.724.479-2.49.766-4.084.829-8.425.191-13.021a53.324 53.324 0 0 0-.861-3.639c-.32-1.148-.799-2.36-1.436-3.638a39.548 39.548 0 0 0-3.352-5.266 165.998 165.998 0 0 0-3.542-4.5 7.198 7.198 0 0 0-.862-1.34c-.32-.383-.67-.766-1.053-1.149a9.546 9.546 0 0 1-1.053-1.245 4.177 4.177 0 0 0-1.054-1.053c0-.255-.065-.413-.191-.479-.129-.063-.192-.221-.192-.479-.257-.254-.415-.508-.478-.766-.066-.254-.225-.508-.479-.766a14.706 14.706 0 0 1-.67-2.202c-.192-.829-.162-1.753.096-2.776.125-1.021.383-1.915.766-2.681s.765-1.466 1.148-2.107c.638-.637 1.149-1.244 1.532-1.819.383-.574.892-1.179 1.532-1.819a23.489 23.489 0 0 1 1.915-1.724 10.889 10.889 0 0 0 1.724-1.723 16.879 16.879 0 0 1 2.01-1.723 15.299 15.299 0 0 0 1.82-1.532 36.1 36.1 0 0 0 2.776-2.298c.829-.766 1.882-1.466 3.16-2.107.254-.254.637-.541 1.149-.861a8.783 8.783 0 0 0 1.532-1.245 51.064 51.064 0 0 0 3.638-2.394 113.42 113.42 0 0 1 3.447-2.393c.254-.255.509-.413.766-.479.254-.063.383-.222.383-.479a27.874 27.874 0 0 1 1.915-1.053c.637-.317 1.274-.67 1.915-1.053l7.851-4.979a9.55 9.55 0 0 1 2.011-1.245c.7-.317 1.436-.67 2.202-1.053a77.613 77.613 0 0 1 3.83-2.298 74.47 74.47 0 0 0 3.829-2.298l5.554-2.489a105.232 105.232 0 0 1 4.691-2.202 78.05 78.05 0 0 1 5.075-2.011 96.64 96.64 0 0 1 10.149-3.638 97.803 97.803 0 0 1 10.532-2.49 27.956 27.956 0 0 1 5.266-1.34c1.723-.255 3.543-.509 5.457-.766l9.958-.575h1.724c1.531.129 3.093.258 4.691.383 1.595.129 3.094.32 4.5.575l6.128 1.532c.766.257 1.466.574 2.106.957.638.383 1.404.766 2.298 1.149.766.383 1.403.832 1.915 1.341.383.128.829.415 1.341.861.508.449.891.862 1.149 1.245l2.297 2.106c.126.512.318.928.575 1.245.254.32.509.799.766 1.436.766 1.278 1.275 2.747 1.532 4.405.254 1.023.446 1.98.574 2.872.126.895.126 1.852 0 2.872-.257 3.705-1.214 7.277-2.872 10.724zm-6.032-19.915a20.145 20.145 0 0 1-.479-1.915l-1.149-.958-1.149-1.34c-.383-.126-.64-.254-.766-.383-.128-.126-.32-.317-.574-.575l-3.064-1.148c-1.789-.383-4.087-.734-6.894-1.054-2.809-.317-5.107-.478-6.893-.478l-15.32 1.34a57.06 57.06 0 0 0-7.468 1.245 130.373 130.373 0 0 0-7.468 2.01 152.584 152.584 0 0 0-19.915 7.469c-.641.383-1.407.831-2.298 1.34-.895.512-1.724.895-2.49 1.149-.64.257-1.215.512-1.723.766l-1.532.766a185.239 185.239 0 0 1-4.021 2.489 64.532 64.532 0 0 0-3.83 2.49 17.853 17.853 0 0 0-3.83 1.915l-8.426 5.361a8.85 8.85 0 0 1-2.01 1.532c-.704.383-1.374.766-2.011 1.149a31.512 31.512 0 0 1-3.734 2.49 22.132 22.132 0 0 0-3.734 2.681 24.365 24.365 0 0 0-2.681 1.915 41.522 41.522 0 0 1-2.49 1.914c-1.277.895-2.555 2.107-3.829 3.639-.641.257-1.215.67-1.724 1.245-.512.574-1.215 1.181-2.106 1.819a17.972 17.972 0 0 0-2.394 2.968c-.703 1.086-1.245 2.331-1.628 3.734-.383.383-.448 1.023-.191 1.915v.957c.254.258.413.449.479.575.062.128.221.257.478.383a26.062 26.062 0 0 0 1.724 2.298c.637.766 1.274 1.532 1.915 2.298.508.64.987 1.181 1.436 1.627.446.449.862.991 1.245 1.628a203.656 203.656 0 0 0 2.01 3.16 53.809 53.809 0 0 0 2.202 3.159 83.954 83.954 0 0 1 1.437 3.447 28.208 28.208 0 0 1 1.053 3.255c.254 1.024.479 2.107.67 3.256.192 1.149.35 2.298.479 3.447.254 2.043.191 4.021-.192 5.936-.128 1.406-.287 2.555-.478 3.447-.192.894-.416 1.66-.671 2.298a115.025 115.025 0 0 0 2.49-3.926 301.39 301.39 0 0 0 2.681-4.5 673.572 673.572 0 0 1 2.585-4.404c.829-1.404 1.627-2.615 2.393-3.639 1.149-2.423 2.615-4.53 4.405-6.319a630.575 630.575 0 0 1 1.819-3.255 75.947 75.947 0 0 1 1.819-3.064 35.832 35.832 0 0 0 2.777-3.543 378.09 378.09 0 0 0 2.393-3.542 16.503 16.503 0 0 1 2.394-3.256c.957-1.02 1.753-2.04 2.394-3.064a574.88 574.88 0 0 1 4.596-6.415 87.937 87.937 0 0 1 4.978-6.223 46.63 46.63 0 0 1 4.883-6.894 194.591 194.591 0 0 0 5.458-6.702 54.226 54.226 0 0 1 1.915-2.872 21.355 21.355 0 0 0 1.723-2.873 18.285 18.285 0 0 1 1.724-2.202c.637-.7 1.211-1.37 1.723-2.011a74.72 74.72 0 0 1 .67-1.627c.192-.446.605-.862 1.245-1.245.254-.892.733-1.723 1.436-2.489.7-.766 1.245-1.467 1.628-2.107 0-.254.126-.413.383-.479a.85.85 0 0 0 .574-.478c0-.638.222-.988.671-1.053.445-.063.987.032 1.627.287a7.562 7.562 0 0 1 1.819 1.053c.575.449.988.862 1.245 1.245.637.64.892 1.406.766 2.298v.383a12.053 12.053 0 0 1-1.532 5.074 721.223 721.223 0 0 1-2.872 5.075 8.38 8.38 0 0 0-.958 1.627c-.257.575-.703 1.119-1.34 1.628-.383 1.023-1.023 2.106-1.915 3.255a218.953 218.953 0 0 0-2.489 3.256 548.347 548.347 0 0 1-4.596 6.415 196.85 196.85 0 0 0-4.596 6.606 142.824 142.824 0 0 1-4.883 6.511 832.17 832.17 0 0 0-5.266 6.702 24.452 24.452 0 0 1-1.915 3.16 131.008 131.008 0 0 1-2.298 3.159 17.478 17.478 0 0 0-2.585 3.256 23.84 23.84 0 0 1-2.394 3.255 150.62 150.62 0 0 1-3.83 6.032 549.865 549.865 0 0 0-4.213 6.415 79.016 79.016 0 0 1-3.159 4.404 23.914 23.914 0 0 0-2.777 4.596l.958-.957c.254-.126.574-.192.957-.192a10.974 10.974 0 0 1 2.107-.191 5.191 5.191 0 0 0 1.053-.479c.317-.191.796-.413 1.436-.67a124.285 124.285 0 0 0 6.798-2.873c2.232-1.02 4.434-2.04 6.606-3.063l6.511-3.256c1.658-.766 3.094-1.532 4.309-2.298 1.212-.766 2.711-1.466 4.5-2.106l4.787-2.489a51.171 51.171 0 0 1 4.117-2.586 322.94 322.94 0 0 1 4.309-2.393c1.02-.509 1.819-.988 2.393-1.436.575-.446 1.179-.925 1.82-1.437 1.786-1.02 3.381-2.04 4.787-3.064l4.213-3.063a389.47 389.47 0 0 0 8.808-6.798 167.526 167.526 0 0 0 8.426-7.181 123.66 123.66 0 0 0 6.415-6.511 226.22 226.22 0 0 0 6.224-7.085l4.787-7.468c1.02-1.404 1.786-2.777 2.298-4.118a69.226 69.226 0 0 1 1.723-4.117c.254-1.403.446-2.806.575-4.212.125-1.404.191-2.807.191-4.213a21.804 21.804 0 0 1-.67-1.915zM481.595 9.482c-.383.129-.641.066-.766-.191a14.739 14.739 0 0 0-2.394-.192h-2.777c-.64 0-1.277-.029-1.915-.095a19.514 19.514 0 0 0-1.914-.096l-4.596.383c-1.79.383-3.321.574-4.596.574-1.661.383-3.288.737-4.883 1.054a20.65 20.65 0 0 0-4.5 1.436l-11.107 3.064a15.746 15.746 0 0 0-2.776.957c-.832.383-1.694.703-2.586.958l-.957 1.532a24.296 24.296 0 0 0-2.489 4.787c-.641 1.66-1.47 3.83-2.49 6.511l-1.915 3.255a54.252 54.252 0 0 0-1.723 3.351 25.524 25.524 0 0 0-1.341 3.543l-4.021 9.766a953.954 953.954 0 0 0-3.16 7.181 74.916 74.916 0 0 0-2.776 7.372 184.549 184.549 0 0 1-4.5 10.82 156.986 156.986 0 0 0-4.5 11.01 838.078 838.078 0 0 1-4.309 11.107 334.711 334.711 0 0 0-4.308 11.489c-.512.895-.958 1.82-1.341 2.777a22.886 22.886 0 0 0-.957 2.968 15.412 15.412 0 0 0-1.341 2.49l-1.149 2.68a12.666 12.666 0 0 0-1.436 3.16 27.452 27.452 0 0 1-1.245 3.351 29.357 29.357 0 0 1-1.627 3.16 194.44 194.44 0 0 1-1.82 2.968 10.105 10.105 0 0 1-1.531 3.83 52.892 52.892 0 0 1-2.681 3.638 69.094 69.094 0 0 1-4.596 7.564 79.016 79.016 0 0 1-5.362 6.798c-3.958 4.467-8.171 7.977-12.638 10.532a25.457 25.457 0 0 0-2.586.766c-.703.254-1.564.446-2.585.575-.64.254-1.373.445-2.202.574-.832.126-1.565.126-2.202 0-.64 0-1.245-.033-1.819-.096a22.334 22.334 0 0 1-1.819-.287c-.638 0-1.149-.066-1.532-.191l-2.873-1.149a15.035 15.035 0 0 0-1.532-.671 3.734 3.734 0 0 1-1.34-.861c-.892-.383-1.595-.832-2.107-1.341a27.828 27.828 0 0 0-1.914-1.723c-1.021-.766-2.041-1.789-3.064-3.064-1.149-1.789-2.107-3.767-2.873-5.936 0-.641.512-1.086 1.532-1.341.512-.257 1.086-.257 1.724 0 1.66.383 3.064 1.149 4.212 2.298a32.222 32.222 0 0 1 1.532 2.681c.383.766.895 1.595 1.532 2.489.766.509 1.407 1.084 1.915 1.724l.766.574c.258.255.512.383.766.383h1.341c.257.126.478.159.67.096.191-.066.416-.096.67-.096 1.02 0 1.915-.065 2.681-.191.766-.129 1.466-.32 2.106-.575a494.788 494.788 0 0 1 4.5-2.968c1.467-.957 2.903-2.139 4.309-3.542 2.681-2.044 5.042-4.533 7.085-7.469a36.485 36.485 0 0 0 4.117-5.936 62.905 62.905 0 0 1 3.734-5.936c.509-1.02 1.054-2.074 1.628-3.16a36.631 36.631 0 0 0 1.628-3.542c.637-.766 1.116-1.532 1.436-2.298.317-.766.733-1.595 1.245-2.49 1.02-2.04 1.69-3.446 2.01-4.212.318-.766.605-1.467.862-2.107.383-.766.796-1.628 1.245-2.585.446-.957.796-1.945 1.053-2.968a70.064 70.064 0 0 1 2.489-5.841c.892-1.849 1.724-3.988 2.49-6.415.637-1.786 1.34-3.605 2.106-5.457a119.642 119.642 0 0 0 2.107-5.458l4.787-11.872c1.403-3.573 2.839-7.181 4.309-10.82a890.11 890.11 0 0 0 4.5-11.393l4.212-9.766a135.885 135.885 0 0 0 2.969-6.798 240.375 240.375 0 0 0 2.776-7.181c.383-1.275.958-2.553 1.724-3.83a54.6 54.6 0 0 0 1.149-2.011c.383-.7.7-1.37.957-2.011-1.661.512-3.513 1.215-5.553 2.107a91.313 91.313 0 0 0-8.33 2.968 67.81 67.81 0 0 1-8.139 2.777l-3.829.957c-1.661.64-2.873 1.023-3.639 1.149-.894.257-1.66.416-2.298.479-.64.066-1.34.033-2.106-.096-.64 0-1.278-.03-1.915-.096-.64-.063-1.149-.221-1.532-.478a28.599 28.599 0 0 1-1.34-.958c-.512-.383-.895-.574-1.149-.574-.129-.255-.353-.575-.671-.958-.32-.383-.607-.766-.861-1.149-.258-.383-.416-.67-.479-.861-.066-.192-.033-.479.096-.862l.766-.766a1.462 1.462 0 0 1 1.053-.67 8.962 8.962 0 0 1 1.245-.096c.254.129.574.191.957.191s.766.129 1.149.383c.254.129.637.129 1.149 0 .509-.125.892 0 1.149.383a4.039 4.039 0 0 1 1.915-.287 3.978 3.978 0 0 0 1.915-.287 16.42 16.42 0 0 1 2.106-.67c.766-.192 1.466-.35 2.107-.479.637 0 1.178-.126 1.627-.383.446-.254.925-.509 1.436-.766a36.689 36.689 0 0 0 4.213-1.436 114.321 114.321 0 0 1 4.213-1.628c2.298-.637 4.53-1.34 6.702-2.106 2.17-.766 4.405-1.532 6.703-2.298a18.054 18.054 0 0 0 2.585-.958c.829-.383 1.753-.7 2.776-.957a194.44 194.44 0 0 0 1.82-2.968c.574-.958 1.178-1.945 1.819-2.968 0-.509.446-.829 1.34-.958h1.149c.892 0 1.849.129 2.872.383.638.257 1.275.575 1.915.958.638.383 1.149.831 1.532 1.34a35.39 35.39 0 0 0 2.681-.766 87.95 87.95 0 0 1 8.234-2.298c2.807-.637 5.679-1.275 8.618-1.915 1.149-.383 2.489-.574 4.021-.574l4.979-.192h2.01c.575 0 1.245.066 2.011.192h2.585c.829 0 1.754.066 2.777.191 1.02.258 1.753.479 2.202.67.446.192.862.479 1.245.862.637.383 1.053.703 1.244.958.192.257.413.511.671.766.637 1.023.574 1.789-.192 2.297a6.97 6.97 0 0 1-.957.383zM303.51 106.378c0 .128-.448.511-1.34 1.148a77.19 77.19 0 0 0-4.596 4.596 70.717 70.717 0 0 0-3.925 3.064 376.17 376.17 0 0 1-3.926 3.256 185.59 185.59 0 0 0-4.213 3.159 77.58 77.58 0 0 1-4.404 3.16 25.365 25.365 0 0 1-4.117 2.681 297.004 297.004 0 0 1-4.5 2.298l-4.979 1.915a15.32 15.32 0 0 0-2.298.574c-.766.257-1.469.449-2.106.574-.512 0-.958.033-1.341.096a8.025 8.025 0 0 1-1.34.096c-1.149 0-2.044-.063-2.681-.192l-1.532-.574c-.64-.383-1.215-.574-1.724-.574-.257-.255-.383-.509-.383-.766l-1.532-.766a37.267 37.267 0 0 0-1.053-1.341c-.32-.383-.478-.7-.478-.957-.383-.509-.641-.958-.766-1.341a10.937 10.937 0 0 0-.575-1.34c0-.383-.03-.796-.096-1.245a2.935 2.935 0 0 0-.478-1.245v-4.021c0-.254.033-.509.095-.766.066-.254.096-.637.096-1.149.257-.892.479-1.882.67-2.968.192-1.083.413-2.136.671-3.16.126-.506.276-1.036.45-1.59l-.065.058a12.392 12.392 0 0 0-2.872 1.532 43.567 43.567 0 0 0-2.49 1.915c-.511.641-1.086 1.053-1.723 1.245-.64.191-1.215.416-1.723.67a19.942 19.942 0 0 1-2.681 1.628c-.895.449-1.79.927-2.681 1.436l-.958.958-.957.957c-.641.257-1.215.512-1.724.766-.511.257-1.086.512-1.723.766-1.023.766-2.011 1.31-2.968 1.628-.958.32-2.011.736-3.16 1.244l-4.213 1.149c-.64.129-1.053.225-1.244.288-.192.065-.608.095-1.245.095-1.149 0-2.106-.191-2.872-.574a4.724 4.724 0 0 1-1.628-1.053c-.449-.446-.799-.796-1.053-1.054-.258-.508-.512-.861-.766-1.053-.258-.191-.512-.479-.766-.862 0-.383.063-.637.191-.766 0-.383-.191-.7-.574-.957.125-.766.125-1.436 0-2.011a2.363 2.363 0 0 1 .191-1.627v-1.341c.383-.766.605-1.34.67-1.723.063-.383.222-.829.479-1.341.383-1.02.575-1.915.575-2.681s.125-1.594.383-2.489c.254-.766.574-1.882.957-3.351.383-1.466.829-2.648 1.341-3.543-.641.512-1.407 1.245-2.298 2.202a60.803 60.803 0 0 0-2.298 2.586 34.59 34.59 0 0 1-3.256 3.542 161.336 161.336 0 0 0-3.255 3.16c-.895.64-1.789 1.436-2.681 2.394-.894.957-1.598 1.819-2.106 2.585a19.678 19.678 0 0 1-1.819 1.627c-.575.449-1.437 1.182-2.586 2.203-.257.257-.511.544-.766.861-.257.32-.574.608-.957.862-.383.257-.799.545-1.245.862-.449.32-.861.607-1.244.861-.641.258-1.374.704-2.203 1.341-.831.64-1.627 1.086-2.393 1.34-.129 0-.32.066-.575.192-.511.257-.832.383-.957.383h-.67c.191 0-.033-.063-.671-.192-.64-.383-1.149-.67-1.532-.861-.383-.192-.766-.605-1.149-1.245l-2.68-2.298c0-.383-.192-.892-.575-1.532v-.574c.129-.638.192-1.595.192-2.873a8.493 8.493 0 0 1 1.34-2.872c.41-.571.747-1.143 1.102-1.715a255.65 255.65 0 0 1-5.889 4.108c-2.172 1.47-4.021 2.586-5.553 3.352l-5.553 3.829a163.048 163.048 0 0 0-6.511 3.064c-2.044 1.024-3.958 1.819-5.745 2.394-1.789.574-3.417.862-4.883.862-1.469 0-2.776-.383-3.925-1.149-.641-.255-.991-.509-1.054-.766-.065-.255-.224-.509-.478-.766a2.466 2.466 0 0 1-.862-.958 11.017 11.017 0 0 0-.67-1.149l.191-2.872.575-4.404c0-.638.158-1.341.478-2.107.318-.766.605-1.466.862-2.106.254-1.021.862-2.615 1.819-4.788a547.613 547.613 0 0 1 2.394-5.361l.957-2.107-1.34 1.341-9 9.957a221.214 221.214 0 0 0-4.309 4.405c-1.086 1.149-2.522 2.426-4.308 3.829-.258.512-.703.991-1.341 1.437-.64.448-1.086.927-1.34 1.436l-1.915 1.34a6.124 6.124 0 0 1-.958.766c-.383.258-.766.383-1.148.383l-1.149.575-1.724-.192h-1.532c-.254-.254-.35-.446-.287-.574.066-.126.033-.255-.096-.383-1.532-.638-2.04-1.786-1.532-3.447l.958-3.447a35.088 35.088 0 0 0 1.723-3.543 15.906 15.906 0 0 1 1.915-3.351l1.341-3.255 2.68-4.596c.892-1.149 1.595-2.106 2.107-2.872l2.681-2.873 1.34-1.723c.383-.383.766-.796 1.149-1.245.383-.446.7-.861.958-1.244.637-.383 1.149-.766 1.532-1.149l1.148-1.149 2.49-1.915c.637-.638 1.274-1.083 1.915-1.341 1.02-.508 1.786-.829 2.298-.957 1.786-.766 3.764-1.083 5.936-.958a6.874 6.874 0 0 0 1.915.479c.637.066 1.34.353 2.106.862.509-.126.958-.126 1.341 0 .254 0 .383-.063.383-.192.254 0 .317-.125.191-.383.509-.637 1.371-.766 2.585-.383 1.212.383 2.011.703 2.394.958l1.149 1.149c.254 0 .254.257 0 .766-.257.64-.257 1.215 0 1.723l-.766 1.532a3.387 3.387 0 0 0-.383 1.532c-.257.766-.545 1.406-.862 1.915-.32.512-.607 1.023-.861 1.532 0 .64-.162 1.182-.479 1.628-.32.448-.608.99-.862 1.627-.64 1.024-.927 1.598-.862 1.724.063.128-.161.766-.67 1.915l-1.532 4.021a93.201 93.201 0 0 0-1.244 3.255 11.48 11.48 0 0 1-1.245 2.49c-.64 1.532-1.149 3.255-1.532 5.17s-.703 3.193-.958 3.83c-.257.511-.257.957 0 1.34l1.149-.383 3.352-1.436a83.67 83.67 0 0 1 3.542-1.436l4.979-2.489c2.298-1.275 5.17-3.031 8.617-5.267a188.538 188.538 0 0 0 9.575-6.606 67.456 67.456 0 0 0 2.202-1.628 16.185 16.185 0 0 0 1.532-1.34c.446-.446.924-.892 1.436-1.341.509-.445 1.149-.987 1.915-1.627 1.02-.766 1.819-1.466 2.394-2.107a77.882 77.882 0 0 0 1.816-2.102l.002-.004a30.13 30.13 0 0 0 1.436-2.394c.446-.829.925-1.753 1.437-2.776.254-.892.637-1.754 1.149-2.586.508-.828 1.02-1.819 1.531-2.968.383-.508.829-.766 1.341-.766.509 0 .957.066 1.34.192l2.107.766c.637.257.924.479.861.67-.065.192.159.607.671 1.245 0 .766-.066 1.277-.192 1.532-.766 1.915-1.723 3.925-2.872 6.032a57.172 57.172 0 0 1-3.639 5.84l-2.585 5.171a107.316 107.316 0 0 1-2.776 5.17c-.258.64-.832 1.598-1.724 2.872-.894 1.278-1.34 2.298-1.34 3.064-.129.129.096.192.67.192.574 0 .925-.255 1.053-.766.255-.255.829-.701 1.724-1.341.891-.637 1.466-1.149 1.723-1.532.254-.254.542-.446.862-.574a5.68 5.68 0 0 0 1.053-.575l1.723-1.532 7.469-7.085a94.23 94.23 0 0 1 7.659-8.234 239.066 239.066 0 0 1 3.926-4.213c1.34-1.403 2.648-2.615 3.925-3.638.509-.255.766-.542.766-.862 0-.317.255-.604.766-.862l1.532-.574c.255-.126.446-.222.575-.287.126-.063.317-.096.574-.096.126 0 .222.033.288.096.062.065.158.095.287.095.383 0 .574.066.574.192 0 .129.126.32.383.574.383.129.67.353.862.671a4.3 4.3 0 0 0 .67.861c.509.258.733.545.67.862-.065.32.03.545.288.67.125.383.191.958.191 1.724l-.574 2.106c-.258.383-.383.766-.383 1.149s-.066.703-.192.957c-.766.766-1.34 1.79-1.723 3.064-1.149 2.939-1.852 4.949-2.107 6.032-.257 1.086-.574 2.46-.957 4.117a31.849 31.849 0 0 1-.862 2.586c-.32.831-.67 1.627-1.053 2.393-1.023 3.576-.895 5.553.383 5.936.254.129.383.162.383.096 0-.063.126-.096.383-.096.637-.254 1.116-.412 1.436-.478.317-.063.862-.287 1.628-.67.508-.126 1.053-.383 1.627-.766.575-.383 1.054-.701 1.437-.958a48.386 48.386 0 0 0 1.819-.766 10.113 10.113 0 0 1 1.628-.574c1.148-.892 1.977-1.404 2.489-1.532a55.486 55.486 0 0 0 2.872-1.915c.892-.638 1.787-1.275 2.681-1.915l3.256-2.107a77.746 77.746 0 0 1 2.393-1.819c.958-.7 1.945-1.307 2.968-1.819a33.205 33.205 0 0 1 3.926-2.968 103.926 103.926 0 0 0 4.309-2.968 44.067 44.067 0 0 0 1.236-1.053c.033-.097.069-.19.101-.288.509-.891.958-1.819 1.341-2.776.383-.958.891-1.945 1.532-2.968.383-.766.829-1.595 1.34-2.49.509-.891.958-1.849 1.341-2.872.637-1.658 1.532-3.285 2.681-4.883a81.986 81.986 0 0 0 3.255-4.883 64.556 64.556 0 0 1 3.255-5.458 90.629 90.629 0 0 0 3.256-5.266 76.385 76.385 0 0 1 3.159-5.074 261.19 261.19 0 0 1 3.543-5.075 58.668 58.668 0 0 1 2.872-4.787 85.624 85.624 0 0 0 3.064-4.979 17.697 17.697 0 0 0 1.628-2.777c.446-.957.924-1.882 1.436-2.776.637-1.021 1.116-1.978 1.436-2.873a8.105 8.105 0 0 1 1.436-2.489 9.816 9.816 0 0 1 1.149-2.777 9.853 9.853 0 0 0 1.149-2.776c.255-.509.479-.925.671-1.245.191-.317.287-.733.287-1.245a15.87 15.87 0 0 1 .861-2.106c.318-.637.605-1.275.862-1.915l.958-.575c.125 0 .221.033.287.096.063.066.158.096.287.096l.192.191c.637 0 1.053.033 1.244.096.192.066.413.162.671.287 1.148.766 1.849 1.47 2.106 2.107.254.383.191.766-.192 1.149 0 .64-.032 1.119-.095 1.436-.066.32-.225.799-.479 1.436a150.024 150.024 0 0 1-4.692 11.011 184.423 184.423 0 0 1-5.457 10.628 308.18 308.18 0 0 0-6.224 10.723 253.413 253.413 0 0 1-6.415 10.915 225.854 225.854 0 0 0-2.872 4.788 574.766 574.766 0 0 0-2.872 4.979l-5.937 10.723a33.313 33.313 0 0 0-2.585 5.745 128.994 128.994 0 0 1-2.202 5.936 25.991 25.991 0 0 0-1.245 2.872c-.32.895-.799 1.853-1.436 2.873-.257.64-.449 1.215-.574 1.723-.129.512-.258.958-.383 1.341l-1.149 3.064c0 .64-.096 1.277-.287 1.915-.192.64-.416 1.277-.671 1.914 0 .641-.066 1.311-.191 2.011a5.27 5.27 0 0 0 0 2.011c-.129.511-.162.927-.096 1.245.063.32.159.67.287 1.053.126.257.192.511.192.766.125.128.317.191.574.191a12.77 12.77 0 0 0 4.405-.766 23.607 23.607 0 0 0 5.553-1.436 26.06 26.06 0 0 0 4.979-2.585 120.655 120.655 0 0 0 5.361-3.256 69.323 69.323 0 0 0 5.362-3.829 44.9 44.9 0 0 0 4.788-3.83 52.674 52.674 0 0 1 4.978-4.022c1.275-1.148 2.202-1.914 2.777-2.297.574-.383 1.436-1.149 2.585-2.298l6.511-5.745c0-.383.254-.575.766-.575h1.149c.125 0 .254.066.383.192.125.129.254.224.383.287.125.066.254.162.383.287.891.258 1.403.832 1.532 1.724v.766l-4.979 4.787c-.64.766-.958 1.215-.958 1.341zM144.192 92.399l-1.915.766-2.681 1.34-3.255 2.681c-.766.64-1.373 1.215-1.819 1.723a37.178 37.178 0 0 1-1.628 1.724l-1.915 2.489c-.64.64-1.182 1.341-1.628 2.107-.448.766-.99 1.66-1.627 2.68-.641.641-1.119 1.311-1.436 2.011a30.357 30.357 0 0 1-1.245 2.394c-.257.383-.416.64-.479.766-.066.128-.287.511-.67 1.149-.257.766-.416 1.373-.479 1.819-.066.449.35.161 1.245-.862 1.149-1.02 1.945-1.753 2.394-2.202.445-.446.765-.796.957-1.053.191-.255.413-.479.67-.67.255-.192.7-.542 1.341-1.054l3.064-3.446 1.531-1.532 3.447-3.639 3.064-3.447 3.064-3.638.766-1.149c.254-.126.317-.254.192-.383-.129-.126-.066-.317.191-.574-.257-.255-.64-.255-1.149 0zm-.956-60.512a55.58 55.58 0 0 1-.766 2.777 125.85 125.85 0 0 0-.766 2.585 18.023 18.023 0 0 1-.957 2.585c-.383.832-.766 1.693-1.149 2.585-1.789 3.576-3.767 6.894-5.936 9.958a108.607 108.607 0 0 1-6.798 9.096 97.088 97.088 0 0 1-7.756 8.33 88.942 88.942 0 0 1-8.617 7.563 544.59 544.59 0 0 1-9 6.798 102.865 102.865 0 0 1-9.192 6.415c-3.192 1.981-6.639 3.735-10.34 5.266a15.867 15.867 0 0 0-2.777.958 15.7 15.7 0 0 1-2.776.957 57.503 57.503 0 0 0-2.777.766c-.832.258-1.694.449-2.585.575H69.32c-.64 0-1.277-.063-1.915-.192l-2.872-.957a13.22 13.22 0 0 1-6.128-4.021 19.29 19.29 0 0 1-.478-1.054c-.192-.445-.162-.861.095-1.244.255-.638.509-.958.766-.958 1.532 0 2.807.32 3.83.958.509.257 1.083.64 1.724 1.149.383.128.891.191 1.531.191 2.424-.254 4.659-.7 6.703-1.34a49.556 49.556 0 0 0 5.936-2.681 137.678 137.678 0 0 1 6.128-3.064 127.741 127.741 0 0 0 5.84-3.734c1.978-1.341 3.989-2.711 6.032-4.117a131.702 131.702 0 0 0 10.915-8.426 103.07 103.07 0 0 0 9.958-9.766l5.936-7.085a56.407 56.407 0 0 0 2.968-3.639 318.925 318.925 0 0 0 2.968-4.021 126.638 126.638 0 0 1 2.011-4.213 46.73 46.73 0 0 1 2.394-4.213c1.149-2.935 1.915-5.87 2.298-8.808.254-1.787.383-3.543.383-5.266 0-1.724-.321-3.477-.958-5.266l-1.34-2.681a2.595 2.595 0 0 0-.479-.67c-.192-.192-.416-.413-.67-.671-.766-.508-1.278-.957-1.532-1.34a20.14 20.14 0 0 1-1.532-.67c-.383-.192-.895-.35-1.532-.479-1.023-.637-2.364-1.116-4.021-1.436a139.456 139.456 0 0 1-4.213-.862 21.714 21.714 0 0 0-3.447-.479 59.655 59.655 0 0 0-3.255-.095c-7.789.128-15.32 1.34-22.597 3.638 1.275.766 2.361 1.789 3.256 3.064 0 .257.063.574.191.957.126.383.063.703-.191.958a73.144 73.144 0 0 1-1.724 5.266c-.64 1.723-1.34 3.479-2.106 5.266a214.18 214.18 0 0 0-3.926 7.468 96.021 96.021 0 0 1-3.925 7.085 275.219 275.219 0 0 0-4.022 7.181c-1.277 2.364-2.618 4.82-4.021 7.373l-7.66 13.979a776.874 776.874 0 0 1-3.829 7.18 152.558 152.558 0 0 1-4.022 6.99 1129.833 1129.833 0 0 0-7.851 14.841 464.228 464.228 0 0 0-7.468 15.032 92.494 92.494 0 0 0-3.83 6.893 119.383 119.383 0 0 0-3.255 7.086 15.941 15.941 0 0 0-1.532 2.585 10.63 10.63 0 0 1-1.341 2.202l-1.34 3.255a11.552 11.552 0 0 0-.958 2.011c-.257.7-.574 1.37-.957 2.011a4.028 4.028 0 0 0-1.053 1.723 23.485 23.485 0 0 1-.671 1.915 27.479 27.479 0 0 1-.861 1.915 7.445 7.445 0 0 0-.67 1.915 24.89 24.89 0 0 1-.766 1.723 7.202 7.202 0 0 0-.575 1.532c0 .766-.191 1.532-.574 2.298a17.372 17.372 0 0 0-.958 2.298 6.078 6.078 0 0 1-.766 1.915 10.47 10.47 0 0 0-.957 2.106 4.712 4.712 0 0 0-.479 1.628 7.113 7.113 0 0 1-.479 1.819c-.128.638-.32 1.179-.574 1.628-.258.446-.512.987-.766 1.628l-.575.957c-.128.126-.32.192-.574.192v.191c-.129.126-.287.03-.479-.287-.191-.32-.416-.416-.67-.287h-.766c-.129 0-.257-.066-.383-.192-.383-.129-.64-.353-.766-.67-.129-.32-.449-.799-.957-1.436h-.479c-.066 0-.225-.129-.479-.383-.383-.129-.383-.32 0-.575v-.383a9.67 9.67 0 0 0-.574-.957c-.258-.383-.321-.703-.192-.958l-.191-.383c0-.257-.033-.478-.096-.67a2.063 2.063 0 0 1-.096-.67c.254-.895.575-1.789.958-2.681.383-.895.637-1.723.766-2.489a5.8 5.8 0 0 1 .383-2.011c.254-.703.508-1.373.765-2.011.126-.64.318-1.277.575-1.915.254-.64.446-1.277.574-1.915L18 143.91c.255-.895.509-1.756.766-2.585.255-.832.575-1.756.958-2.777.126-.257.287-.607.479-1.053.191-.449.35-.862.478-1.245l.766-1.532.575-2.872c0-1.403-.353-2.744-1.053-4.021-.704-1.275-.991-2.49-.862-3.639.125-.766.191-1.466.191-2.106v-1.915c0-.766.063-1.499.192-2.202.125-.7.125-1.371 0-2.011v-2.394c0-.7.063-1.436.191-2.202a12.63 12.63 0 0 1-.287-.957 3.029 3.029 0 0 1-.096-.766c0-.509-.033-.987-.095-1.436a9.84 9.84 0 0 1-.096-1.436c0-.638-.066-1.308-.192-2.011-.128-.7-.257-1.371-.383-2.011a80.08 80.08 0 0 0-.478-3.83 10.765 10.765 0 0 0-1.245-3.638 21.922 21.922 0 0 0-1.532-4.021c-.64-1.275-1.34-2.615-2.106-4.022a16.352 16.352 0 0 1-1.724-2.01 11.436 11.436 0 0 0-1.915-2.011 415.702 415.702 0 0 0-2.202-1.819 48.05 48.05 0 0 0-2.394-1.819c-.511-.255-.861-.413-1.053-.479-.191-.063-.416-.222-.67-.479a39.745 39.745 0 0 1-1.915-1.628 4.627 4.627 0 0 1-1.34-2.01c-.512-.766-.641-1.786-.383-3.064 0-.383.062-.829.191-1.341.126-.508.317-.891.575-1.148.383-1.404 1.149-2.936 2.297-4.596a25.667 25.667 0 0 1 3.256-4.692 258.45 258.45 0 0 1 3.83-4.308 193.91 193.91 0 0 1 5.074-5.266 223.305 223.305 0 0 1 5.458-5.266 37.662 37.662 0 0 0 2.489-2.298 26.555 26.555 0 0 1 2.873-2.49 843.116 843.116 0 0 0 3.925-3.159 102.083 102.083 0 0 1 4.117-3.16l1.532-1.149a103.94 103.94 0 0 0 2.107-1.436 30.022 30.022 0 0 1 2.297-1.436 23.528 23.528 0 0 1 2.011-1.437c.7-.445 1.436-.987 2.202-1.627a105.562 105.562 0 0 0 2.681-1.724 13.653 13.653 0 0 0 2.107-1.723c3.446-1.786 6.893-3.573 10.34-5.362a191.897 191.897 0 0 1 10.341-4.979 608.744 608.744 0 0 1 10.915-4.021 131.414 131.414 0 0 1 11.298-3.447l10.723-2.298c1.787-.254 3.381-.413 4.788-.479a99.83 99.83 0 0 1 4.404-.095h2.489c1.787.128 3.702.353 5.745.67 2.041.32 3.956.799 5.745 1.436 1.786.64 3.51 1.406 5.17 2.298 1.658.895 3.256 2.044 4.788 3.447 1.02.64 1.849 1.34 2.489 2.106a24.892 24.892 0 0 1 1.915 2.681c.637.766 1.053 1.532 1.245 2.298.191.766.413 1.532.67 2.298.254 1.023.446 1.981.574 2.872.126.895.317 1.853.575 2.873 0 1.023-.066 1.981-.192 2.872a94.555 94.555 0 0 0-.383 3.064zM78.225 16.089a110.4 110.4 0 0 0-6.99 2.585c-4.724 2.044-9.066 4.15-13.021 6.319a39.119 39.119 0 0 1-3.256 1.82 22.65 22.65 0 0 0-3.063 1.819c-.641.511-1.215.927-1.724 1.244-.512.321-1.023.671-1.532 1.054a29.64 29.64 0 0 1-2.393 1.436c-.832.449-1.628.99-2.394 1.627-.766.512-1.469.991-2.107 1.437-.64.448-1.277.99-1.914 1.627l-1.915.958a36.663 36.663 0 0 1-3.735 3.255 65.427 65.427 0 0 0-3.734 3.064 35.25 35.25 0 0 0-2.872 2.394c-.895.832-1.852 1.693-2.872 2.585a388.71 388.71 0 0 0-5.171 4.883 380.725 380.725 0 0 0-5.17 5.074c-.895 1.149-1.789 2.298-2.681 3.447A49.435 49.435 0 0 0 9 66.547a13.172 13.172 0 0 0-2.489 3.447 14.872 14.872 0 0 0-1.341 4.021 1.294 1.294 0 0 0-.095.862c.063.32.095.607.095.862v.191l3.064 1.724 3.639 2.298c.508.64 1.083 1.244 1.723 1.819a71.63 71.63 0 0 0 2.106 1.819c2.17 2.172 3.956 4.692 5.362 7.564a68.015 68.015 0 0 1 3.639 9.096c.254 1.789.478 3.512.67 5.17.191 1.661.413 3.384.67 5.17 0 .641.03 1.311.096 2.011.063.703.096 1.436.096 2.202a5.813 5.813 0 0 0-.096 1.819 6 6 0 0 1-.096 1.82v4.787c-.129.511-.066 1.215.192 2.106a883.104 883.104 0 0 0 6.415-13.5 534.066 534.066 0 0 1 6.606-13.692l15.128-27.957a673.27 673.27 0 0 1 4.213-7.181 160.359 160.359 0 0 0 4.021-7.181 281.738 281.738 0 0 0 4.021-7.181 87.93 87.93 0 0 1 4.213-6.99c.638-1.149 1.275-2.298 1.915-3.447.637-1.149 1.341-2.36 2.107-3.638a30.825 30.825 0 0 0 2.298-3.83 123.306 123.306 0 0 0 1.914-4.021 92.6 92.6 0 0 0 .958-1.628c.254-.446.509-.987.766-1.628a7.68 7.68 0 0 1 .862-1.627c.317-.446.604-.988.861-1.628a15.77 15.77 0 0 1 .862-1.819c.317-.575.604-1.179.862-1.819.125-.638.446-1.595.957-2.873-2.172.766-4.5 1.565-6.989 2.394z" fill-rule="evenodd"/>
</svg>